<svg width="500" height="500" viewBox="0 0 500 500" fill="none" xmlns="http://www.w3.org/2000/svg">
<g clip-path="url(#clip0_2_2)">
<path d="M0 0C165 0 330 0 500 0C500 165 500 330 500 500C335 500 170 500 0 500C0 335 0 170 0 0Z" fill="#001B3D"/>
<path d="M131.227 193.137C139.613 198.115 145.639 205.311 149.375 214.312C151.579 227.317 149.108 237.903 141.516 248.621C135.891 257.449 134.124 267.48 132.578 277.641C132 281 132 281 131 282C128.552 282.088 126.132 282.115 123.684 282.098C122.953 282.096 122.221 282.095 121.468 282.093C119.125 282.088 116.781 282.075 114.437 282.062C112.852 282.057 111.267 282.053 109.682 282.049C105.788 282.038 101.894 282.02 98 282C98 280.68 98 279.36 98 278C107.9 277.67 117.8 277.34 128 277C128.66 273.04 129.32 269.08 130 265C131.634 258.084 134.237 252.363 138.062 246.375C144.125 236.869 146.252 228.321 145 217C143.035 209.375 138.163 202.621 131.5 198.426C123.259 194.146 114.521 192.322 105.344 194.684C94.9197 198.56 88.5827 204.368 83.8906 214.363C81.2824 222.085 82.5127 230.757 85.5234 238.176C87.5995 242.147 90.1481 245.736 92.771 249.355C96.6578 254.758 99 259.223 99 266C106.781 261.399 113.551 256.339 120 250C120.65 249.363 121.299 248.726 121.969 248.07C127.96 241.738 132.636 233.679 134 225C133.01 225.33 132.02 225.66 131 226C131.441 221.154 133.745 217.519 137 214C137.66 214 138.32 214 139 214C139.835 230.273 133.687 242.029 123 254C116.03 261.216 107.561 266.836 99 272C98.34 272 97.68 272 97 272C96.7925 271.201 96.5849 270.402 96.3711 269.578C93.7199 260.127 89.5806 252.546 84.2851 244.344C78.8636 235.754 76.6929 227.491 78.4648 217.336C80.0074 210.709 82.3734 205.975 87 201C87.5646 200.383 88.1292 199.765 88.7109 199.129C100.367 187.694 116.928 185.837 131.227 193.137Z" fill="#B5B7B9"/>
<path d="M273.195 207.656C276.923 209.528 279.487 212.212 281.34 215.941C283.086 221.386 282.856 226.289 280.312 231.375C276.741 235.429 273.529 238.651 267.949 239.203C262.851 239.309 259.343 238.961 255 236C251.141 232.079 248.848 228.917 248.625 223.375C248.68 217.901 250.253 214.006 254 210C259.679 205.83 266.517 205.66 273.195 207.656Z" fill="#ECEFF6"/>
<path d="M411.437 208.188C414.847 210.599 417.134 213.268 419 217C419.719 224.109 419.514 229.329 415 235C410.01 238.971 405.926 239.634 399.59 239.391C394.909 238.685 392.229 236.398 389.187 232.938C386.047 227.814 386.199 221.796 387 216C392.019 206.485 401.771 204.848 411.437 208.188Z" fill="#EBEEF5"/>
<path d="M184 207C192 207 192 207 194.01 208.652C194.701 209.783 194.701 209.783 195.406 210.938C195.922 211.75 196.438 212.562 196.969 213.398C197.474 214.257 197.979 215.115 198.5 216C199.036 216.859 199.572 217.717 200.125 218.602C201.442 220.719 202.725 222.857 204 225C204.33 219.06 204.66 213.12 205 207C207.64 207 210.28 207 213 207C213 217.56 213 228.12 213 239C204 239 204 239 201.969 237.439C201.555 236.727 201.141 236.015 200.715 235.281C200.248 234.514 199.78 233.747 199.299 232.957C198.85 232.146 198.4 231.335 197.938 230.5C197.453 229.689 196.969 228.878 196.471 228.043C195.284 226.046 194.138 224.025 193 222C192.67 227.61 192.34 233.22 192 239C189.36 239 186.72 239 184 239C184 228.44 184 217.88 184 207Z" fill="#EAEDF4"/>
<path d="M422 207C431 207 431 207 433.031 208.561C433.445 209.273 433.859 209.985 434.285 210.719C434.752 211.486 435.22 212.253 435.701 213.043C436.15 213.854 436.6 214.665 437.062 215.5C437.547 216.311 438.031 217.122 438.529 217.957C439.716 219.954 440.862 221.975 442 224C442.33 218.39 442.66 212.78 443 207C445.64 207 448.28 207 451 207C451 217.56 451 228.12 451 239C443 239 443 239 440.863 237.094C440.352 236.238 439.84 235.382 439.312 234.5C438.75 233.595 438.188 232.69 437.609 231.758C437.078 230.848 436.547 229.938 436 229C435.024 227.457 434.045 225.915 433.062 224.375C432.382 223.261 431.701 222.148 431 221C430.67 226.94 430.34 232.88 430 239C427.36 239 424.72 239 422 239C422 228.44 422 217.88 422 207Z" fill="#EDEFF6"/>
<path d="M217 207C225 207 225 207 227.391 209.16C228.004 210.118 228.618 211.076 229.25 212.062C229.874 213.002 230.498 213.942 231.141 214.91C233.146 218.243 235.07 221.623 237 225C237.33 219.06 237.66 213.12 238 207C240.64 207 243.28 207 246 207C246 217.56 246 228.12 246 239C238 239 238 239 235.609 236.805C234.996 235.838 234.382 234.871 233.75 233.875C233.126 232.924 232.502 231.972 231.859 230.992C231.246 230.005 230.632 229.017 230 228C228.68 226.02 227.36 224.04 226 222C225.67 227.61 225.34 233.22 225 239C222.36 239 219.72 239 217 239C217 228.44 217 217.88 217 207Z" fill="#EDF0F7"/>
<path d="M236 270C238.846 269.917 241.693 269.835 244.625 269.75C245.51 269.714 246.395 269.677 247.307 269.64C252.688 269.565 255.754 270.384 260 274C261.604 277.208 261.635 280.531 261 284C258.438 286.75 258.438 286.75 256 289C255.902 291.955 257.623 294.119 259.062 296.625C261 300 261 300 261 302C258.03 302 255.06 302 252 302C251.59 301.218 251.18 300.435 250.758 299.629C250.219 298.617 249.68 297.605 249.125 296.562C248.591 295.553 248.058 294.544 247.508 293.504C246.243 290.899 246.243 290.899 244 290C244 293.96 244 297.92 244 302C241.36 302 238.72 302 236 302C236 291.44 236 280.88 236 270Z" fill="#EBEEF5"/>
<path d="M326 207C329.3 207 332.6 207 336 207C336.262 207.701 336.524 208.402 336.794 209.124C337.987 212.312 339.181 215.5 340.375 218.688C340.787 219.79 341.2 220.893 341.625 222.029C342.025 223.096 342.424 224.163 342.836 225.262C343.203 226.241 343.569 227.22 343.947 228.229C344.641 230.057 345.371 231.872 346.135 233.671C347 236 347 236 347 239C344.36 239 341.72 239 339 239C338.34 237.35 337.68 235.7 337 234C333.04 233.67 329.08 233.34 325 233C324.34 234.98 323.68 236.96 323 239C320.36 239 317.72 239 315 239C317.097 231.673 319.549 224.523 322.188 217.375C322.556 216.371 322.924 215.367 323.303 214.332C324.199 211.887 325.099 209.443 326 207Z" fill="#EAEDF4"/>
<path d="M205 270C207.64 270 210.28 270 213 270C213.025 270.656 213.05 271.312 213.076 271.988C213.192 274.95 213.315 277.913 213.438 280.875C213.477 281.908 213.516 282.94 213.557 284.004C213.619 285.483 213.619 285.483 213.684 286.992C213.72 287.903 213.757 288.815 213.795 289.753C213.866 292.035 213.866 292.035 215 294C217.917 294.167 217.917 294.167 221 294C223.521 291.479 223.294 290.488 223.414 286.992C223.453 286.006 223.491 285.02 223.531 284.004C223.562 282.971 223.593 281.939 223.625 280.875C223.664 279.835 223.702 278.794 223.742 277.723C223.837 275.149 223.922 272.575 224 270C226.64 270 229.28 270 232 270C232.088 273.542 232.141 277.083 232.188 280.625C232.213 281.624 232.238 282.623 232.264 283.652C232.328 290.149 231.781 294.64 227.5 299.812C223.259 303.17 217.096 302.545 212 302C208.318 299.896 206.565 297.884 205 294C204.773 291.343 204.773 291.343 204.805 288.359C204.811 287.289 204.818 286.22 204.824 285.117C204.841 284.006 204.858 282.895 204.875 281.75C204.884 280.623 204.893 279.497 204.902 278.336C204.926 275.557 204.959 272.779 205 270Z" fill="#EDEFF6"/>
<path d="M192 270C195.987 271.958 198.757 274.137 201 278C201 278.99 201 279.98 201 281C193.235 281.388 193.235 281.388 189 278C185.382 277.472 183.698 277.541 180.625 279.563C178.405 282.892 178.579 285.07 179 289C180.017 291.761 180.362 292.681 183 294C187.261 294.45 187.261 294.45 190.875 292.5C194.167 290.176 197.035 290.802 201 291C200.776 294.923 200.04 295.961 197.125 298.75C192.1 302.368 187.971 302.38 182 302C176.776 300.907 174.066 297.114 171 293C169.125 289.25 169.47 285.083 170 281C174.142 270.738 181.552 268.712 192 270Z" fill="#EBEEF5"/>
<path d="M263 270C265.64 270 268.28 270 271 270C271.207 270.601 271.414 271.201 271.627 271.82C272.561 274.527 273.499 277.232 274.438 279.938C274.763 280.883 275.088 281.829 275.424 282.803C275.736 283.702 276.049 284.601 276.371 285.527C276.803 286.776 276.803 286.776 277.244 288.051C277.839 289.973 277.839 289.973 279 291C281.31 284.07 283.62 277.14 286 270C288.97 270 291.94 270 295 270C294.702 270.863 294.405 271.726 294.098 272.615C292.993 275.818 291.888 279.022 290.782 282.225C290.304 283.611 289.826 284.997 289.348 286.384C288.66 288.377 287.973 290.37 287.285 292.363C286.665 294.162 286.665 294.162 286.031 295.997C285.345 297.995 284.668 299.996 284 302C280.7 302 277.4 302 274 302C270.979 295.063 268.229 288.063 265.688 280.938C265.288 279.831 265.288 279.831 264.88 278.701C263.816 275.678 263 273.229 263 270Z" fill="#ECEFF6"/>
<path d="M283 207C285.64 207 288.28 207 291 207C291.207 207.601 291.414 208.201 291.627 208.82C292.561 211.527 293.499 214.232 294.438 216.938C294.763 217.883 295.088 218.829 295.424 219.803C295.736 220.702 296.049 221.601 296.371 222.527C296.803 223.776 296.803 223.776 297.244 225.051C297.839 226.973 297.839 226.973 299 228C301.31 221.07 303.62 214.14 306 207C308.97 207 311.94 207 315 207C314.702 207.863 314.405 208.726 314.098 209.615C312.993 212.818 311.888 216.022 310.782 219.225C310.304 220.611 309.826 221.997 309.348 223.384C308.66 225.377 307.973 227.37 307.285 229.363C306.665 231.162 306.665 231.162 306.031 232.997C305.345 234.995 304.668 236.996 304 239C300.7 239 297.4 239 294 239C290.979 232.063 288.229 225.063 285.688 217.938C285.288 216.831 285.288 216.831 284.88 215.701C283.816 212.678 283 210.229 283 207Z" fill="#ECEFF6"/>
<path d="M297 270C303.6 270 310.2 270 317 270C317 271.98 317 273.96 317 276C313.04 276 309.08 276 305 276C305 278.31 305 280.62 305 283C308.3 283 311.6 283 315 283C315 284.98 315 286.96 315 289C311.7 289 308.4 289 305 289C305 291.31 305 293.62 305 296C308.96 296 312.92 296 317 296C317 297.98 317 299.96 317 302C310.4 302 303.8 302 297 302C297 291.44 297 280.88 297 270Z" fill="#EFF1F8"/>
<path d="M348 207C356.25 207 364.5 207 373 207C373 208.98 373 210.96 373 213C370.03 213 367.06 213 364 213C364 221.58 364 230.16 364 239C361.36 239 358.72 239 356 239C356 230.42 356 221.84 356 213C353.36 213 350.72 213 348 213C348 211.02 348 209.04 348 207Z" fill="#EDF0F7"/>
<path d="M267.027 213.52C270.555 214.379 272.001 216.064 274 219C274.572 223.002 274.369 225.228 272.625 228.875C271 231 271 231 269 232C264.707 232.486 262.679 232.462 259.063 230C256.757 226.646 256.296 224.911 256.59 220.937C257.834 215.059 261.136 213.112 267.027 213.52Z" fill="#082243"/>
<path d="M375 207C377.64 207 380.28 207 383 207C383 217.56 383 228.12 383 239C380.36 239 377.72 239 375 239C375 228.44 375 217.88 375 207Z" fill="#EBEEF5"/>
<path d="M407 214C409.5 215.437 409.5 215.437 411 218C411.614 221.134 411.635 223.868 411 227C408.937 230.062 408.937 230.062 406 232C402.437 232.625 402.437 232.625 399 232C396.285 229.842 395.214 228.238 394.621 224.805C394.43 221.073 394.593 218.695 396.5 215.437C400.05 213.396 403.003 213.222 407 214Z" fill="#031E3F"/>
<path d="M172 207C174.31 207 176.62 207 179 207C179 217.56 179 228.12 179 239C176.69 239 174.38 239 172 239C172 228.44 172 217.88 172 207Z" fill="#F4F6FC"/>
<path d="M98 287C108.89 287 119.78 287 131 287C131 288.32 131 289.64 131 291C120.11 291 109.22 291 98 291C98 289.68 98 288.36 98 287Z" fill="#B0B2B5"/>
<path d="M98 296C108.23 296 118.46 296 129 296C129 297.32 129 298.64 129 300C118.77 300 108.54 300 98 300C98 298.68 98 297.36 98 296Z" fill="#B3B5B7"/>
<path d="M222.063 178.25C225 179 225 179 227 181C227 182.32 227 183.64 227 185C223.7 185 220.4 185 217 185C217.66 186.32 218.32 187.64 219 189C219.763 188.835 220.526 188.67 221.313 188.5C224 188 224 188 227 188C225.104 190.527 224.194 190.972 221 191.438C218 191 218 191 216.063 189.438C214.542 185.949 215.059 183.631 216 180C219 178 219 178 222.063 178.25Z" fill="#D8DCE6"/>
<path d="M244 276C247.375 275.875 247.375 275.875 251 276C253 278 253 278 253.188 280.562C253 283 253 283 252 284C249.329 284.141 246.676 284.042 244 284C244 281.36 244 278.72 244 276Z" fill="#152E4D"/>
<path d="M190 174C190.66 174 191.32 174 192 174C192 175.65 192 177.3 192 179C193.392 178.66 193.392 178.66 194.812 178.312C198 178 198 178 199.688 179.156C201.439 181.617 201.304 183.198 201.188 186.188C201.16 187.089 201.133 187.99 201.105 188.918C201.071 189.605 201.036 190.292 201 191C200.34 191 199.68 191 199 191C198.67 187.7 198.34 184.4 198 181C196.35 181 194.7 181 193 181C192.67 184.3 192.34 187.6 192 191C191.34 191 190.68 191 190 191C190 185.39 190 179.78 190 174Z" fill="#C9CFDA"/>
<path d="M106 305C111.61 305 117.22 305 123 305C122.67 306.32 122.34 307.64 122 309C119.412 310.294 117.45 310.168 114.562 310.188C113.594 310.202 112.626 310.216 111.629 310.23C109 310 109 310 106 308C106 307.01 106 306.02 106 305Z" fill="#AFB1B4"/>
<path d="M171 175C171.66 175 172.32 175 173 175C173 175.99 173 176.98 173 178C173.99 178 174.98 178 176 178C176 178.66 176 179.32 176 180C175.01 180 174.02 180 173 180C173 182.97 173 185.94 173 189C173.99 189 174.98 189 176 189C176 189.66 176 190.32 176 191C174.35 190.67 172.7 190.34 171 190C171 186.7 171 183.4 171 180C170.34 180 169.68 180 169 180C169 179.34 169 178.68 169 178C169.66 178 170.32 178 171 178C171 177.01 171 176.02 171 175Z" fill="#BEC6D2"/>
<path d="M84 175C90.2468 181.078 90.2468 181.078 92 184C91.67 184.99 91.34 185.98 91 187C86.7903 185.497 85.0814 182.854 83 179C83.25 176.625 83.25 176.625 84 175Z" fill="#B1B3B6"/>
<path d="M330 217C330.66 217 331.32 217 332 217C333.604 220.508 334.22 223.144 334 227C332.02 227 330.04 227 328 227C328.458 223.531 328.891 220.326 330 217Z" fill="#142D4C"/>
<path d="M65 197C69.1284 197.607 72.4042 198.875 76 201C76.33 201.99 76.66 202.98 77 204C72.4355 203.457 69.0272 202.205 65 200C65 199.01 65 198.02 65 197Z" fill="#B5B7B9"/>
<path d="M217 185C220.3 185 223.6 185 227 185C225.68 186.65 224.36 188.3 223 190C221.35 189.67 219.7 189.34 218 189C217.67 187.68 217.34 186.36 217 185Z" fill="#2B425F"/>
<path d="M110 170C111.32 170 112.64 170 114 170C114 172.97 114 175.94 114 179C112.68 179 111.36 179 110 179C110 176.03 110 173.06 110 170Z" fill="#A9ACB0"/>
<path d="M219 180C221.97 180.495 221.97 180.495 225 181C225 181.99 225 182.98 225 184C222.36 184 219.72 184 217 184C217.66 182.68 218.32 181.36 219 180Z" fill="#051F41"/>
<path d="M225 179C226.375 181.062 226.375 181.062 227 183C226.01 183.495 226.01 183.495 225 184C225 183.01 225 182.02 225 181C221.657 180.926 219.196 180.935 216 182C216.33 181.01 216.66 180.02 217 179C219.959 177.52 221.868 178.152 225 179Z" fill="#B9C1CE"/>
</g>
<defs>
<clipPath id="clip0_2_2">
<rect width="500" height="500" fill="white"/>
</clipPath>
</defs>
</svg>
